<svg id="Logo" xmlns="http://www.w3.org/2000/svg" width="153" height="59.277" viewBox="0 0 153 59.277">
  <rect id="Rectangle_6" data-name="Rectangle 6" width="153" height="59" fill="#fff" opacity="0"/>
  <g id="Group_1" data-name="Group 1" transform="translate(-292.69 -257.999)">
    <path id="Path_1" data-name="Path 1" d="M320.954,287.822c2.31,2.9,4.4,5.552,6.518,8.177,3.174,3.929,6.329,7.875,9.652,11.682,1.763,2.021,3.7,3.793,6.476,4.3.576.1,1.169.115,1.75.2.268.037.6-.029.771.258-.074.454-.449.426-.7.432a46.6,46.6,0,0,1-6.87-.174c-2.1-.257-3.456-1.622-4.773-3.072a220.561,220.561,0,0,1-15.629-19.634,1.768,1.768,0,0,0-1.621-.825c-1.588.027-3.178-.017-4.766-.023a1.284,1.284,0,0,0-.857.119,1.4,1.4,0,0,0-.1.852c0,3.4-.055,6.81.173,10.21a14.137,14.137,0,0,0,.208,1.745c.25,1.29.919,1.785,2.47,1.9.527.039,1.054.077,1.579.136.1.011.184.116.325.21-.424.653-1.057.494-1.594.464-2.616-.144-5.233-.139-7.851-.08-.5.012-1,.073-1.5.088a1.429,1.429,0,0,1-1.237-.343c.226-.516.688-.4,1.062-.441,1.336-.137,1.666-.393,2-1.69a20.149,20.149,0,0,0,.42-4.984c.052-8.074.027-16.148.021-24.222,0-.5-.077-.993-.11-1.491-.136-2.078-.863-2.781-2.965-2.9-.378-.021-.841.164-1.124-.333.186-.478.612-.363.964-.364,1.882-.005,3.767.147,5.642.111,2.175-.041,4.351-.1,6.527-.108a18.455,18.455,0,0,1,4.362.542,8.611,8.611,0,0,1,6.737,9.559,14.976,14.976,0,0,1-3.925,7.91A23.273,23.273,0,0,1,320.954,287.822Zm-10.112-17.6V286.6a2.164,2.164,0,0,0,1.177.627,16.459,16.459,0,0,0,3.841.436c2.861.088,4.981-.588,6.242-3.91a12.986,12.986,0,0,0,.158-8.627,7.352,7.352,0,0,0-5.586-5.316,12.533,12.533,0,0,0-4.554-.1C311.7,269.762,311.212,269.667,310.842,270.224Z" transform="translate(-2.632 -2.632)" fill="#51bdfe"/>
    <path id="Path_2" data-name="Path 2" d="M344.778,271.368h-5.419l2.025-3.3h6.766v40.594l-3.371-3.816Z" transform="translate(-12.284 -2.649)" fill="#fe4d61"/>
    <path id="Path_3" data-name="Path 3" d="M368.292,283.788c.589,1.547,1.135,2.991,1.688,4.431.525,1.369,1.033,2.745,1.594,4.1.391.945.71,1.135,1.557,1.122a.916.916,0,0,0,.374-.836q.011-3.876,0-7.752c0-.112-.053-.223-.042-.18-.223-.486-.679-.256-.962-.69a35.672,35.672,0,0,1,4.275.147,2.318,2.318,0,0,1,1.839,3.246,6.709,6.709,0,0,1-1.349,1.987c1.34,1.366,2.091,3.281,4.007,4.125.447-.788.594-7.243.289-8.929-.145-.3-.53-.2-.814-.506h2.716c-.043.362-.533.159-.561.5a17.058,17.058,0,0,0-.161,3.755c1.614-1.095,3.612-3.482,3.6-4.268H388.6c-2.159.913-3.265,2.831-4.962,4.242,1.93,1.8,3.348,4.015,5.706,5.218.5-.76.673-6.725.359-8.905-.119-.337-.512-.248-.808-.542h2.707c-.074.351-.55.179-.592.538-.063,2.873-.122,5.766.057,8.654.253.268.592.206.822.42-1.28,0-2.561.017-3.841-.007a2.312,2.312,0,0,1-1.569-.9c-1-1.031-1.972-2.1-2.964-3.142-.193-.2-.324-.5-.74-.547a21.489,21.489,0,0,0,.1,4.049c.247.4.6.295.97.536-1.379,0-2.622.032-3.863-.014a1.861,1.861,0,0,1-1.352-.9c-.78-1.028-1.552-2.061-2.336-3.1h-1.68a11.717,11.717,0,0,0,.164,3.539c.255.363.61.239.961.466h-5.031a26,26,0,0,0-1.209-3.629h-2.94c-.1,1.2-1.233,2.249-.626,3.636h-2.157c.948-.2,1.145-.992,1.41-1.728q1.3-3.6,2.589-7.2A1.96,1.96,0,0,1,368.292,283.788Zm6.333,5.193c1,.227,1.931.529,2.651-.4a3.328,3.328,0,0,0,.03-3.187c-.547-.847-1.376-1.092-2.681-.764ZM368.1,286l-.194-.021-1.1,3.436h2.487Z" transform="translate(-18.714 -6.788)" fill="#5ac1fe"/>
    <path id="Path_4" data-name="Path 4" d="M411.4,284.52c-.422-.262-.772-.075-.97-.408h2.446c0,.343-.476.175-.565.462-.167,3.028.013,6.071-.227,9.312-2.666-2.42-4.841-5.046-7.32-7.467a34.941,34.941,0,0,0,.2,6.884c.216.293.6.13.848.4h-2.694c.144-.279.522-.1.69-.376.329-3.075.057-6.177.22-9.262l.2-.108c2.4,2.625,4.8,5.25,7.168,7.835Z" transform="translate(-29.068 -6.832)" fill="#56bffe"/>
    <path id="Path_5" data-name="Path 5" d="M385.615,310.017l-2.448-7.766c-.24-.223-.582-.113-.837-.383a21.237,21.237,0,0,1,2.554-.1c.043.357-.362.241-.455.571.422,1.851,1,3.771,1.646,5.879l2.5-6.334.26,0c.753,2.042,1.506,4.083,2.34,6.347a54.221,54.221,0,0,0,1.768-5.914c-.045-.286-.458-.2-.491-.511h2.29c-1.1.418-1.221,1.29-1.489,2.047-.615,1.741-1.183,3.5-1.782,5.245a1.319,1.319,0,0,1-.592.932c-.933-1.958-1.48-4.051-2.454-6.247l-2.462,6.247Z" transform="translate(-23.595 -11.521)" fill="#5ac1fe"/>
    <path id="Path_6" data-name="Path 6" d="M358.016,300.37c-.238-.27-.549-.189-.879-.389a3.845,3.845,0,0,1,1.563-.1,11.8,11.8,0,0,1,2.639.08,2.359,2.359,0,0,1,1.658,3.7,10.992,10.992,0,0,1-1.129,1.448c1.478,1.437,2.191,3.666,4.505,4.162-1.81.368-2.4.152-3.539-1.334-.625-.814-1.239-1.636-1.856-2.452a4.161,4.161,0,0,0-1.653-.025,7.289,7.289,0,0,0,.189,3.567c.2.2.5.114.726.29h-2.836a1.045,1.045,0,0,0,.735-1.109q.021-3.7,0-7.4A1.452,1.452,0,0,0,358.016,300.37Zm1.246.1v4.217c1.185.454,2.034.361,2.556-.257a3.255,3.255,0,0,0,.1-3.164C361.406,300.4,360.614,300.159,359.262,300.469Z" transform="translate(-16.964 -11.015)" fill="#59c0fe"/>
    <path id="Path_7" data-name="Path 7" d="M425.465,293.163c-2.9,1.754-7.119.462-8.162-2.411a4.941,4.941,0,0,1,4.638-6.912,21.034,21.034,0,0,1,3.453.382,6.149,6.149,0,0,1-.027,2.095,2.452,2.452,0,0,0-2.266-1.861,4.911,4.911,0,0,0-3.1.313,3.508,3.508,0,0,0-1.892,3.075c-.281,2.467,1.214,5.641,4.928,5.479a1.881,1.881,0,0,0,1.312-.486,13.126,13.126,0,0,0-.071-3.327c-.261-.368-.566-.332-.85-.542h2.865c-.806.3-.855.89-.833,1.54C425.487,291.386,425.465,292.265,425.465,293.163Z" transform="translate(-32.703 -6.8)" fill="#58c0fe"/>
    <path id="Path_8" data-name="Path 8" d="M401.565,303.589c.156,1.963-.083,3.926.249,5.856.2.243.542.133.822.364H400.25c.645-.211.687-.727.686-1.269q0-2.907,0-5.812v-.95l.239-.156,6.279,6.49v-5.692c-.257-.493-.677-.276-.875-.624h2.368c-.852.307-.753.906-.754,1.469,0,1.908,0,3.816-.013,5.724a1.686,1.686,0,0,1-.169,1.019C405.774,307.931,403.71,305.755,401.565,303.589Z" transform="translate(-28.312 -11.482)" fill="#58c0fe"/>
    <path id="Path_9" data-name="Path 9" d="M417.99,309.984a4.109,4.109,0,0,1-4.295-4.172,4.319,4.319,0,0,1,4.395-4.24c2.579,0,4.4,1.665,4.4,4.029A4.3,4.3,0,0,1,417.99,309.984Zm3.3-4.064h.019c-.015-.292-.012-.587-.049-.878a3.256,3.256,0,0,0-3.139-3,2.912,2.912,0,0,0-3.18,2.636,5.059,5.059,0,0,0,.311,2.761,3.288,3.288,0,0,0,3.7,2.023,2.976,2.976,0,0,0,2.333-3.013C421.3,306.271,421.29,306.1,421.29,305.92Z" transform="translate(-31.851 -11.469)" fill="#59c0fe"/>
    <path id="Path_10" data-name="Path 10" d="M373.928,309.984a4.109,4.109,0,0,1-4.361-4.184,4.3,4.3,0,0,1,4.4-4.23,4.072,4.072,0,0,1,4.4,4.04A4.313,4.313,0,0,1,373.928,309.984Zm3.228-4.045a4.092,4.092,0,0,0-.691-2.58,3.173,3.173,0,0,0-3.335-1.261,2.84,2.84,0,0,0-2.306,2.47,5.323,5.323,0,0,0,.288,2.851,3.29,3.29,0,0,0,3.692,2.041,2.949,2.949,0,0,0,2.35-2.906C377.17,306.35,377.156,306.144,377.156,305.939Z" transform="translate(-20.236 -11.469)" fill="#5ac1fe"/>
    <path id="Path_11" data-name="Path 11" d="M453.017,301.933a6.175,6.175,0,0,1-.063,1.751c-.78-1.735-2.21-1.689-3.595-1.594a2.848,2.848,0,0,0-2.67,2.509,4.012,4.012,0,0,0,4.548,4.851,1.026,1.026,0,0,0,.67-.335v-2.748c-.184-.368-.538-.2-.8-.469a16.859,16.859,0,0,1,2.543-.085c.024.394-.413.177-.466.428-.271,1.016.009,2.087-.2,3.1a5.7,5.7,0,0,1-6.333-.682,4.265,4.265,0,0,1-.223-5.5c1.116-1.424,2.714-1.636,4.376-1.546C451.524,301.654,452.244,301.818,453.017,301.933Z" transform="translate(-40.23 -11.476)" fill="#57bffe"/>
    <path id="Path_12" data-name="Path 12" d="M359.69,289.248c2.038-.285,2.795-1.2,2.518-2.834-.236-1.393-1.377-2.093-2.991-1.743.052,2.863-.151,5.753.183,8.631.223.336.65.148.923.424h-2.857a1.054,1.054,0,0,0,.655-1.076c.016-2.582.006-5.165,0-7.748a.331.331,0,0,0-.063-.192c-.234-.432-.623-.264-.971-.624,1.688.087,3.249-.264,4.771.262a2.147,2.147,0,0,1,1.4,2.543A2.9,2.9,0,0,1,359.69,289.248Z" transform="translate(-16.95 -6.857)" fill="#58c0fe"/>
    <path id="Path_13" data-name="Path 13" d="M474.887,309.814h-1.951a14.125,14.125,0,0,0-1.054-2.827h-2.7c-.25.917-.972,1.751-.612,2.833h-1.91a1.77,1.77,0,0,0,1.214-1.307c.76-2,1.542-3.992,2.32-5.985.116-.3.256-.585.383-.875.4.036.394.354.484.572.84,2.031,1.664,4.069,2.5,6.1C473.83,308.974,474.1,309.633,474.887,309.814Zm-4.384-6.455a21.856,21.856,0,0,0-1.1,3.081,10.442,10.442,0,0,0,2.216-.059A19.8,19.8,0,0,0,470.5,303.359Z" transform="translate(-45.792 -11.491)" fill="#58c0fe"/>
    <path id="Path_14" data-name="Path 14" d="M441.627,308.588a2.186,2.186,0,0,1-.215,1.309c-1.418.289-2.9-.189-4.581.068.416-.326.626-.53.657-.883.2-2.251.046-4.5.023-6.744-.152-.311-.541-.161-.731-.469h4.6c.116.382-.13.758-.067,1.369-.652-1.308-1.675-.8-2.613-.966V305.3a6.725,6.725,0,0,0,2.487-.09c.183.469-.163.892-.094,1.346-.581-1.054-1.544-.56-2.441-.773a23.84,23.84,0,0,0,.034,3.41,2.974,2.974,0,0,0,2.378.123A1.855,1.855,0,0,0,441.627,308.588Z" transform="translate(-37.928 -11.547)" fill="#5ac0fe"/>
    <path id="Path_15" data-name="Path 15" d="M460.9,305.187c.637-.08,1.057-.614,1.846-.552-.5.765-1.281.793-1.883,1.244a9.713,9.713,0,0,0,.234,3.38,3.894,3.894,0,0,0,2.535.05,2.225,2.225,0,0,0,.551-.888,2,2,0,0,1-.172,1.476c-1.559.267-3.136-.184-4.76.028.981-1.108.331-2.349.585-3.458-.45-.158-.652.3-1.053.167-.106-.722.731-.5.977-.886v-3.232c-.136-.511-.59-.319-.749-.67h2.543c-.066.346-.5.165-.654.593Z" transform="translate(-43.718 -11.541)" fill="#5ac0fe"/>
    <path id="Path_16" data-name="Path 16" d="M487.886,308.66c.414.487.868.366,1.258.555h-3.811c.4-.189.894-.08,1.37-.508.2-2.477.058-5.064.108-7.691-.765,0-1.216.465-1.877.4l2.9-1.933C487.9,302.7,487.678,305.711,487.886,308.66Z" transform="translate(-50.603 -10.919)" fill="#fe5467"/>
    <path id="Path_17" data-name="Path 17" d="M428.448,302.283l-.738-.315.021-.1h2.395c-.024.314-.415.177-.541.41-.057,2.319-.123,4.642-.005,6.919a4.176,4.176,0,0,0,2.73.108c.29-.213.362-.506.6-.938a3.384,3.384,0,0,1-.169,1.5c-1.6.346-3.2-.158-4.981.09.385-.322.6-.524.626-.875C428.576,306.827,428.456,304.577,428.448,302.283Z" transform="translate(-35.54 -11.546)" fill="#5ac0fe"/>
    <path id="Path_18" data-name="Path 18" d="M374.756,299.969a8.987,8.987,0,0,1,1.974-1.34.856.856,0,0,1,.5.784C376.392,299.524,375.588,299.785,374.756,299.969Z" transform="translate(-21.602 -10.695)" fill="#68c6fd"/>
  </g>
</svg>
